<svg xmlns="http://www.w3.org/2000/svg" viewBox="0 0 233 51" fill="none">
    <path
        d="M219.818 5.89784L222.83 5.85847C223.206 5.85847 223.593 5.84721 223.936 5.95978C224.414 6.11175 224.747 6.46072 225.021 6.80407C227.603 10.1137 226.782 14.307 226.728 18.1907C226.728 18.4271 226.728 18.686 226.921 18.8718C227.319 19.2601 228.113 19.0406 228.666 18.7873C228.897 17.9768 227.308 17.3689 227.512 16.5584C227.587 16.2657 227.877 16.0462 228.156 15.8492C228.661 15.4834 229.246 15.095 229.933 15.1175C231.023 15.1569 231.565 16.1475 231.812 16.9805C232.451 19.1306 232.773 21.3371 232.784 23.5435C232.784 23.915 232.768 24.309 232.5 24.6185C232.312 24.838 232.011 24.9844 231.716 25.1082C229.579 26.0088 227.056 26.0651 224.629 26.0988C223.834 26.1101 223.002 26.1157 222.304 25.8174C221.606 25.5191 221.128 24.8099 221.499 24.2583"
        fill="#BD8B01" />
    <path
        d="M219.818 44.6452C220.822 44.6564 221.826 44.6733 222.83 44.6846C223.206 44.6846 223.593 44.6958 223.936 44.5833C224.414 44.4313 224.747 44.0823 225.021 43.739C227.603 40.4294 226.782 36.236 226.728 32.3523C226.728 32.1159 226.728 31.857 226.921 31.6713C227.319 31.2829 228.113 31.5024 228.666 31.7557C228.897 32.5662 227.308 33.1741 227.512 33.9846C227.587 34.2773 227.877 34.4968 228.156 34.6938C228.661 35.0597 229.246 35.4481 229.933 35.4255C231.023 35.3861 231.565 34.3955 231.812 33.5625C232.451 31.4124 232.773 29.206 232.784 26.9996C232.784 26.6281 232.768 26.2341 232.5 25.9245C232.312 25.705 232.011 25.5586 231.716 25.4348C229.579 24.5342 227.056 24.4779 224.629 24.4442C223.834 24.4329 223.002 24.4273 222.304 24.7256C221.606 25.0239 221.128 25.7331 221.499 26.2847"
        fill="#BD8B01" />
    <path
        d="M12.9658 5.89784L9.95389 5.85847C9.57806 5.85847 9.19151 5.84721 8.8479 5.95978C8.37007 6.11175 8.03719 6.46072 7.76338 6.80407C5.18095 10.1137 6.00239 14.307 6.05608 18.1907C6.05608 18.4271 6.05607 18.686 5.86279 18.8718C5.4655 19.2601 4.67091 19.0406 4.11791 18.7873C3.88705 17.9768 5.47625 17.3689 5.27223 16.5584C5.19707 16.2657 4.90714 16.0462 4.62796 15.8492C4.12329 15.4834 3.53808 15.095 2.85087 15.1175C1.76099 15.1569 1.21873 16.1475 0.971764 16.9805C0.332868 19.1306 0.0107377 21.3371 0 23.5435C0 23.915 0.0161059 24.309 0.284549 24.6185C0.47246 24.838 0.773112 24.9844 1.0684 25.1082C3.20521 26.0088 5.72858 26.0651 8.15531 26.0988C8.9499 26.1101 9.78207 26.1157 10.48 25.8174C11.178 25.5191 11.6558 24.8099 11.2854 24.2583"
        fill="#BD8B01" />
    <path
        d="M12.9658 44.6452C11.9618 44.6564 10.9579 44.6733 9.95389 44.6846C9.57806 44.6846 9.19151 44.6958 8.8479 44.5833C8.37007 44.4313 8.03719 44.0823 7.76338 43.739C5.18095 40.4294 6.00239 36.236 6.05608 32.3523C6.05608 32.1159 6.05607 31.857 5.86279 31.6713C5.4655 31.2829 4.67091 31.5024 4.11791 31.7557C3.88705 32.5662 5.47625 33.1741 5.27223 33.9846C5.19707 34.2773 4.90714 34.4968 4.62796 34.6938C4.12329 35.0597 3.53808 35.4481 2.85087 35.4255C1.76099 35.3861 1.21873 34.3955 0.971764 33.5625C0.332868 31.4124 0.0107377 29.206 0 26.9996C0 26.6281 0.0161059 26.2341 0.284549 25.9245C0.47246 25.705 0.773112 25.5586 1.0684 25.4348C3.20521 24.5342 5.72858 24.4779 8.15531 24.4442C8.9499 24.4329 9.78207 24.4273 10.48 24.7256C11.178 25.0239 11.6558 25.7331 11.2854 26.2847"
        fill="#BD8B01" />
    <path
        d="M219.171 1H13.624C9.68629 1 6.49414 4.34655 6.49414 8.47475V41.9029C6.49414 46.0311 9.68629 49.3777 13.624 49.3777H219.171C223.109 49.3777 226.301 46.0311 226.301 41.9029V8.47475C226.301 4.34655 223.109 1 219.171 1Z"
        fill="#D33D00" stroke="#BD8B01" stroke-width="2" stroke-miterlimit="10" />
    <path
        d="M16.0104 4.72479C16.0104 4.47151 15.8118 4.26324 15.5702 4.26324H9.39062V10.5166C9.39062 10.7699 9.58928 10.9781 9.83088 10.9781C10.0725 10.9781 10.2711 10.7699 10.2711 10.5166V5.64226C10.2711 5.38897 10.4698 5.18071 10.7114 5.18071H15.5756C15.8172 5.18071 16.0158 4.97245 16.0158 4.71916L16.0104 4.72479Z"
        fill="#F4FF8D" />
    <path
        d="M6.89991 7.90606C6.89991 8.15935 7.09854 8.36761 7.34014 8.36761H13.5197V2.11426C13.5197 1.86097 13.3211 1.65271 13.0795 1.65271C12.8379 1.65271 12.6392 1.86097 12.6392 2.11426V6.9886C12.6392 7.24189 12.4406 7.45015 12.199 7.45015H7.33478C7.09318 7.45015 6.89453 7.65841 6.89453 7.9117L6.89991 7.90606Z"
        fill="#F4FF8D" />
    <path
        d="M16.0104 45.8156C16.0104 46.0689 15.8118 46.2772 15.5702 46.2772H9.39062V40.0238C9.39062 39.7705 9.58928 39.5623 9.83088 39.5623C10.0725 39.5623 10.2711 39.7705 10.2711 40.0238V44.8981C10.2711 45.1514 10.4698 45.3597 10.7114 45.3597H15.5756C15.8172 45.3597 16.0158 45.568 16.0158 45.8212L16.0104 45.8156Z"
        fill="#F4FF8D" />
    <path
        d="M6.89991 42.6298C6.89991 42.3765 7.09854 42.1683 7.34014 42.1683H13.5197V48.4217C13.5197 48.6749 13.3211 48.8832 13.0795 48.8832C12.8379 48.8832 12.6392 48.6749 12.6392 48.4217V43.5473C12.6392 43.294 12.4406 43.0857 12.199 43.0857H7.33478C7.09318 43.0857 6.89453 42.8775 6.89453 42.6242L6.89991 42.6298Z"
        fill="#F4FF8D" />
    <path
        d="M10.2067 13.033C10.2067 12.7968 10.024 12.6052 9.79866 12.6052C9.57331 12.6052 9.39062 12.7968 9.39062 13.033V37.5061C9.39062 37.7423 9.57331 37.9339 9.79866 37.9339C10.024 37.9339 10.2067 37.7423 10.2067 37.5061V13.033Z"
        fill="#F4FF8D" />
    <path
        d="M216.066 5.84283C216.066 5.58955 216.265 5.38129 216.506 5.38129H221.811H222.471H222.686V11.6346C222.686 11.8879 222.487 12.0962 222.245 12.0962C222.004 12.0962 221.805 11.8879 221.805 11.6346V6.7603C221.805 6.50701 221.607 6.29875 221.365 6.29875H216.501C216.259 6.29875 216.061 6.09049 216.061 5.8372L216.066 5.84283Z"
        fill="#F4FF8D" />
    <path
        d="M225.176 9.02343C225.176 9.27672 224.978 9.48498 224.736 9.48498H219.432H218.771H218.557V3.23163C218.557 2.97834 218.755 2.77008 218.997 2.77008C219.238 2.77008 219.437 2.97834 219.437 3.23163V8.10597C219.437 8.35926 219.636 8.56752 219.877 8.56752H224.742C224.983 8.56752 225.182 8.77578 225.182 9.02907L225.176 9.02343Z"
        fill="#F4FF8D" />
    <path
        d="M216.066 46.9322C216.066 47.1855 216.265 47.3937 216.506 47.3937H221.811H222.471H222.686V41.1403C222.686 40.8871 222.487 40.6788 222.245 40.6788C222.004 40.6788 221.805 40.8871 221.805 41.1403V46.0147C221.805 46.268 221.607 46.4763 221.365 46.4763H216.501C216.259 46.4763 216.061 46.6845 216.061 46.9378L216.066 46.9322Z"
        fill="#F4FF8D" />
    <path
        d="M225.176 43.7467C225.176 43.4934 224.978 43.2852 224.736 43.2852H219.432H218.771H218.557V49.5385C218.557 49.7918 218.755 50.0001 218.997 50.0001C219.238 50.0001 219.437 49.7918 219.437 49.5385V44.6642C219.437 44.4109 219.636 44.2026 219.877 44.2026H224.742C224.983 44.2026 225.182 43.9944 225.182 43.7411L225.176 43.7467Z"
        fill="#F4FF8D" />
    <path
        d="M221.87 38.6236C221.87 38.8599 222.052 39.0514 222.278 39.0514C222.503 39.0514 222.686 38.8599 222.686 38.6236V14.1505C222.686 13.9143 222.503 13.7227 222.278 13.7227C222.052 13.7227 221.87 13.9143 221.87 14.1505V38.6236Z"
        fill="#F4FF8D" />
    <path
        d="M228.414 17.7278C228.215 17.2663 228.387 16.6922 228.746 16.3545C229.106 16.0167 229.627 15.9098 230.105 15.9773C230.363 16.0111 230.62 16.1012 230.803 16.2925C230.958 16.4558 231.05 16.6753 231.119 16.8948C231.404 17.7729 231.468 18.7072 231.533 19.6303C231.624 20.953 231.715 22.2814 231.807 23.6041C231.817 23.7729 231.828 23.9474 231.764 24.0994C231.71 24.2289 231.608 24.3245 231.501 24.409C231.05 24.7467 230.464 24.803 229.911 24.8424C228.811 24.9099 227.705 24.9268 226.604 24.893C226.492 23.9924 226.481 23.0806 226.577 22.1801C227.871 22.0731 229.165 21.9662 230.459 21.8592C230.529 21.8536 230.609 21.8423 230.658 21.7917C230.717 21.7298 230.722 21.6285 230.717 21.5384C230.679 20.0919 230.577 18.6397 230.405 17.2044C230.239 17.2044 230.073 17.2044 229.906 17.2044C229.82 17.2044 229.965 17.8573 229.949 17.9305C229.895 18.1387 229.793 18.2006 229.6 18.2682C229.165 18.4145 228.602 18.1612 228.414 17.7335V17.7278Z"
        fill="#BD3600" />
    <path
        d="M228.414 32.9037C228.215 33.3652 228.387 33.9393 228.746 34.277C229.106 34.6147 229.627 34.7217 230.105 34.6541C230.363 34.6204 230.62 34.5303 230.803 34.3389C230.958 34.1757 231.05 33.9562 231.119 33.7367C231.404 32.8586 231.468 31.9243 231.533 31.0012C231.624 29.6785 231.715 28.3501 231.807 27.0274C231.817 26.8586 231.828 26.6841 231.764 26.5321C231.71 26.4026 231.608 26.307 231.501 26.2225C231.05 25.8848 230.464 25.8285 229.911 25.7891C228.811 25.7216 227.705 25.7047 226.604 25.7384C226.492 26.639 226.481 27.5508 226.577 28.4514C227.871 28.5584 229.165 28.6653 230.459 28.7723C230.529 28.7779 230.609 28.7891 230.658 28.8398C230.717 28.9017 230.722 29.003 230.717 29.0931C230.679 30.5396 230.577 31.9918 230.405 33.4271C230.239 33.4271 230.073 33.4271 229.906 33.4271C229.82 33.4271 229.965 32.7742 229.949 32.701C229.895 32.4928 229.793 32.4308 229.6 32.3633C229.165 32.217 228.602 32.4702 228.414 32.898V32.9037Z"
        fill="#BD3600" />
    <path
        d="M4.29969 17.7278C4.49833 17.2663 4.32652 16.6922 3.9668 16.3545C3.60709 16.0167 3.08631 15.9098 2.60848 15.9773C2.35077 16.0111 2.09307 16.1012 1.91053 16.2925C1.75484 16.4558 1.66357 16.6753 1.59377 16.8948C1.30922 17.7729 1.2448 18.7072 1.18037 19.6303C1.0891 20.953 0.997828 22.2814 0.906557 23.6041C0.895819 23.7729 0.885074 23.9474 0.949501 24.0994C1.00319 24.2289 1.10521 24.3245 1.21259 24.409C1.66357 24.7467 2.24877 24.803 2.80177 24.8424C3.90238 24.9099 5.00837 24.9268 6.10899 24.893C6.22174 23.9924 6.23247 23.0806 6.13583 22.1801C4.84193 22.0731 3.54804 21.9662 2.25415 21.8592C2.18435 21.8536 2.10381 21.8423 2.05549 21.7917C1.99643 21.7298 1.99107 21.6285 1.99644 21.5384C2.03402 20.0919 2.13602 18.6397 2.30782 17.2044C2.47426 17.2044 2.64071 17.2044 2.80714 17.2044C2.89304 17.2044 2.74807 17.8573 2.76418 17.9305C2.81787 18.1387 2.91987 18.2006 3.11315 18.2682C3.54803 18.4145 4.11177 18.1612 4.29969 17.7335V17.7278Z"
        fill="#BD3600" />
    <path
        d="M4.29969 32.9037C4.49833 33.3652 4.32652 33.9393 3.9668 34.277C3.60709 34.6147 3.08631 34.7217 2.60848 34.6541C2.35077 34.6204 2.09307 34.5303 1.91053 34.3389C1.75484 34.1757 1.66357 33.9562 1.59377 33.7367C1.30922 32.8586 1.2448 31.9243 1.18037 31.0012C1.0891 29.6785 0.997828 28.3501 0.906557 27.0274C0.895819 26.8586 0.885074 26.6841 0.949501 26.5321C1.00319 26.4026 1.10521 26.307 1.21259 26.2225C1.66357 25.8848 2.24877 25.8285 2.80177 25.7891C3.90238 25.7216 5.00837 25.7047 6.10899 25.7384C6.22174 26.639 6.23247 27.5508 6.13583 28.4514C4.84193 28.5584 3.54804 28.6653 2.25415 28.7723C2.18435 28.7779 2.10381 28.7891 2.05549 28.8398C1.99643 28.9017 1.99107 29.003 1.99644 29.0931C2.03402 30.5396 2.13602 31.9918 2.30782 33.4271C2.47426 33.4271 2.64071 33.4271 2.80714 33.4271C2.89304 33.4271 2.74807 32.7742 2.76418 32.701C2.81787 32.4928 2.91987 32.4308 3.11315 32.3633C3.54803 32.217 4.11177 32.4702 4.29969 32.898V32.9037Z"
        fill="#BD3600" />
</svg>